# xmcd
#
# Track frame offsets:
#	150
#	13010
#	23022
#	32747
#	42185
#	51835
#	61835
#	70685
#	81035
#	91535
#	100985
#	109685
#	119210
#	130410
#	140307
#	149960
#	160457
#	171622
#	183832
#
# Disc length: 2621 seconds
#
# Revision: 1
# Processed by: cddbd v1.5.2PL0 Copyright (c) Steve Scherf et al.
# Submitted via: EZCDAudioConverter 9.1.1.1
#
DISCID=0c0a3b13
DTITLE=Roy Orbison - The Legendary Roy Orbison
DYEAR=1990
DGENRE=Country
TTITLE0=Tryin' To Get To You
TTITLE1=Ooby Dooby
TTITLE2=Go, Go, Go
TTITLE3=Rock House
TTITLE4=You're My Baby
TTITLE5=Devil Doll
TTITLE6=Claudette
TTITLE7=Seems To Me
TTITLE8=Sweet And Innocent
TTITLE9=Almost Eighteen
TTITLE10=Jolie
TTITLE11=I'll Never Tell
TTITLE12=With The Bug
TTITLE13=Paper Boy
TTITLE14=Uptown
TTITLE15=Pretty One
TTITLE16=Only The Lonely
TTITLE17=Here Comes That Song Again
TTITLE18=Blue Angel
EXTD=
EXTT0=
EXTT1=
EXTT2=
EXTT3=
EXTT4=
EXTT5=
EXTT6=
EXTT7=
EXTT8=
EXTT9=
EXTT10=
EXTT11=
EXTT12=
EXTT13=
EXTT14=
EXTT15=
EXTT16=
EXTT17=
EXTT18=
PLAYORDER=
